<svg xmlns="http://www.w3.org/2000/svg" width="102" height="46" viewBox="0 0 102 46">
  <g id="actions" transform="translate(-458 -1374)">
    <g id="Group_4" data-name="Group 4" transform="translate(7)">
      <circle id="Ellipse_1" data-name="Ellipse 1" cx="23" cy="23" r="23" transform="translate(507 1374)" fill="#33a0ff"/>
      <path id="cart_2" d="M428.932,523a1.993,1.993,0,0,0,1.952-1.608l1-5A2,2,0,0,0,429.927,514h-9.956v-1a1,1,0,0,0-1-1H416.98a1,1,0,0,0,0,2h1v10a2,2,0,1,0,1.991,2h6.969a1.992,1.992,0,1,0,1.992-2h-8.961v-1Zm1-7-1,5h-8.961v-5h9.956Z" transform="translate(106.029 877)" fill="#fff" fill-rule="evenodd"/>
    </g>
    <g id="Group_5" data-name="Group 5">
      <circle id="Ellipse_2" data-name="Ellipse 2" cx="23" cy="23" r="23" transform="translate(458 1374)" fill="#33a0ff"/>
      <path id="hearts" d="M587,579a3,3,0,0,1,2.24,4.99c-.55.62-5.24,5.01-5.24,5.01s-4.7-4.39-5.25-5.02A2.965,2.965,0,0,1,578,582a3,3,0,0,1,6,0,3,3,0,0,1,3-3m0-2a4.973,4.973,0,0,0-3,1,5,5,0,0,0-6.746,7.3c.562.644,4.261,4.108,5.381,5.154a2,2,0,0,0,2.732,0c1.116-1.045,4.8-4.5,5.369-5.143A5,5,0,0,0,587,577Z" transform="translate(-103.017 813)" fill="#fff" fill-rule="evenodd"/>
    </g>
  </g>
</svg>
